<?xml version="1.0" encoding="utf-8"?>
<!-- Generator: Adobe Illustrator 16.0.0, SVG Export Plug-In . SVG Version: 6.00 Build 0)  -->
<!DOCTYPE svg PUBLIC "-//W3C//DTD SVG 1.1//EN" "http://www.w3.org/Graphics/SVG/1.1/DTD/svg11.dtd">
<svg version="1.1" id="레이어_1" xmlns="http://www.w3.org/2000/svg" xmlns:xlink="http://www.w3.org/1999/xlink" x="0px"
	 y="0px" width="29.5px" height="31.467px" viewBox="0 0 29.5 31.467" enable-background="new 0 0 29.5 31.467"
	 xml:space="preserve">
<rect x="0.001" fill="#E14B5B" width="29.499" height="31.467"/>
<rect x="69.914" y="45.322" fill="#E14B5B" width="29.5" height="31.467"/>
<g id="flow" transform="translate(-16)">
	<g id="그룹_2604" transform="translate(16)">
		<path id="패스_4349" fill="#FFFDFC" d="M29.089,14.9l-5.121-3.414V7.375h1.845c2.036,0,3.688-1.651,3.688-3.688
			S27.849,0,25.813,0h-6.453c-0.509,0-0.922,0.411-0.922,0.92c0,0.001,0,0.001,0,0.002v5.531c-0.001,0.509,0.41,0.921,0.92,0.922
			c0,0,0.001,0,0.002,0h2.766v4.116l-4.889,3.259h-5.345c-0.394-2.312-2.205-4.123-4.516-4.516V7.375h4.609
			c0.509,0,0.921-0.411,0.922-0.92c0-0.001,0-0.001,0-0.002V0.922C12.907,0.413,12.495,0,11.986,0c0,0-0.001,0-0.002,0H0.922
			C0.414,0,0,0.411,0,0.92c0,0.001,0,0.001,0,0.002v5.531c0,0.509,0.411,0.921,0.92,0.922c0.001,0,0.001,0,0.002,0h4.609v2.859
			c-3.003,0.5-5.032,3.341-4.531,6.344c0.387,2.323,2.208,4.145,4.531,4.532v2.858H0.922C0.414,23.968,0,24.38,0,24.89
			c0,0,0,0,0,0.002v5.653c0,0.509,0.411,0.921,0.92,0.922c0.001,0,0.001,0,0.002,0h11.062c0.509,0.001,0.921-0.411,0.922-0.92
			c0-0.001,0-0.001,0-0.002v-5.653c0.001-0.51-0.411-0.922-0.92-0.923c0,0-0.001,0-0.002,0H7.375V21.11
			c2.312-0.395,4.123-2.205,4.516-4.517h5.345l5.3,3.533c0.31,0.206,0.713,0.206,1.022,0l5.531-3.687
			c0.424-0.283,0.538-0.855,0.256-1.279c-0.068-0.101-0.154-0.188-0.256-0.255L29.089,14.9z"/>
	</g>
</g>
</svg>
