<svg xmlns="http://www.w3.org/2000/svg" width="24.179" height="32.238" viewBox="0 0 24.179 32.238">
  <g id="flag" transform="translate(-63.998)">
    <g id="그룹_2602" data-name="그룹 2602" transform="translate(63.998)">
      <path id="패스_4347" data-name="패스 4347" d="M87.639,3.9a.935.935,0,0,0-.94,0,7.49,7.49,0,0,1-3.68.94,7.017,7.017,0,0,1-5.051-1.988,8.1,8.1,0,0,0-5.84-2.31,8.414,8.414,0,0,0-4.905,1.526V1.612a1.612,1.612,0,0,0-3.224,0V30.626a1.612,1.612,0,0,0,3.224,0V16.656a.94.94,0,0,0,.489-.193,7.286,7.286,0,0,1,4.417-1.418,7.028,7.028,0,0,1,5.061,1.988,8.1,8.1,0,0,0,5.83,2.31,8.4,8.4,0,0,0,4.7-1.37,1.075,1.075,0,0,0,.462-.913V4.836A1.075,1.075,0,0,0,87.639,3.9Z" transform="translate(-63.998 0)" fill="#fff"/>
    </g>
  </g>
</svg>
