<svg xmlns="http://www.w3.org/2000/svg" width="29.5" height="31.467" viewBox="0 0 29.5 31.467">
  <g id="flow" transform="translate(-16)">
    <g id="그룹_2604" data-name="그룹 2604" transform="translate(16)">
      <path id="패스_4349" data-name="패스 4349" d="M45.089,14.9l-5.121-3.414V7.375h1.844a3.687,3.687,0,1,0,0-7.375H35.359a.921.921,0,0,0-.922.922V6.453a.921.921,0,0,0,.922.922h2.766v4.116L33.237,14.75H27.891a5.521,5.521,0,0,0-4.516-4.516V7.375h4.609a.921.921,0,0,0,.922-.922V.922A.921.921,0,0,0,27.984,0H16.922A.921.921,0,0,0,16,.922V6.453a.921.921,0,0,0,.922.922h4.609v2.859a5.513,5.513,0,0,0,0,10.876v2.859H16.922a.921.921,0,0,0-.922.922v5.654a.921.921,0,0,0,.922.922H27.984a.921.921,0,0,0,.922-.922V24.891a.921.921,0,0,0-.922-.922H23.375V21.11a5.521,5.521,0,0,0,4.516-4.516h5.345l5.3,3.533a.922.922,0,0,0,1.023,0l5.531-3.687a.922.922,0,0,0,0-1.534Z" transform="translate(-16)" fill="#e14b5b"/>
    </g>
  </g>
</svg>
