<?xml version="1.0" encoding="utf-8"?>
<!-- Generator: Adobe Illustrator 16.0.0, SVG Export Plug-In . SVG Version: 6.00 Build 0)  -->
<!DOCTYPE svg PUBLIC "-//W3C//DTD SVG 1.1//EN" "http://www.w3.org/Graphics/SVG/1.1/DTD/svg11.dtd">
<svg version="1.1" id="레이어_1" xmlns="http://www.w3.org/2000/svg" xmlns:xlink="http://www.w3.org/1999/xlink" x="0px"
	 y="0px" width="21.046px" height="24.98px" viewBox="0 0 21.046 24.98" enable-background="new 0 0 21.046 24.98"
	 xml:space="preserve">
<g id="function" transform="translate(-11.224)">
	<g id="그룹_2608" transform="translate(11.224)">
		<path id="패스_4355" fill="#FFFFFF" d="M4.057,24.981c1.655-0.117,3.046-1.288,3.444-2.899c0.005-0.018,0.01-0.035,0.014-0.053
			c0.743-3.074,1.925-7.949,2.8-11.5h3.136c0.589,0,1.066-0.478,1.066-1.067c0-0.589-0.478-1.067-1.066-1.067H10.85
			c0.28-1.117,0.485-1.913,0.567-2.184l0.09-0.3c0.33-1.129,1.105-3.775,2.3-3.775c1.11,0,1.276,1.711,1.284,1.794
			c0.047,0.588,0.561,1.026,1.148,0.98c0.588-0.047,1.027-0.561,0.98-1.148l0,0C17.121,2.46,16.276,0,13.807,0
			c-2.8,0-3.848,3.586-4.353,5.31L9.368,5.601c-0.1,0.341-0.372,1.393-0.723,2.8H4.911c-0.59,0-1.068,0.479-1.068,1.068
			c0,0.589,0.478,1.067,1.068,1.067h3.206c-1.1,4.445-2.513,10.309-2.668,10.955c-0.058,0.169-0.5,1.356-1.391,1.356
			c-1.367,0-1.959-1.919-1.964-1.933c-0.149-0.571-0.733-0.912-1.304-0.763c-0.571,0.149-0.912,0.732-0.763,1.304
			c0.004,0.018,0.01,0.035,0.015,0.053C0.416,22.8,1.681,24.981,4.057,24.981z"/>
		<path id="패스_4356" fill="#FFFFFF" d="M19.889,22.227c0.618,0.021,1.137-0.462,1.157-1.08c0.002-0.026,0.002-0.052,0-0.078
			c-0.013-0.359-0.16-0.702-0.412-0.96l-2.217-2.548l2.15-2.515c0.215-0.236,0.338-0.541,0.348-0.86
			c-0.011-0.614-0.517-1.104-1.131-1.094c-0.015,0.001-0.029,0.001-0.045,0.002c-0.443,0.036-0.846,0.274-1.092,0.646l-1.671,2.184
			l-1.638-2.183c-0.262-0.396-0.701-0.637-1.174-0.646c-0.619-0.021-1.138,0.464-1.158,1.083c-0.001,0.024-0.001,0.05,0,0.074
			c0.014,0.359,0.16,0.701,0.412,0.959l2.068,2.382l-2.267,2.68c-0.222,0.232-0.345,0.54-0.347,0.86
			c0.009,0.613,0.514,1.104,1.127,1.094c0.016,0,0.031-0.001,0.047-0.002c0.443-0.035,0.846-0.273,1.092-0.645l1.785-2.35
			l1.787,2.354C18.976,21.981,19.416,22.22,19.889,22.227z"/>
	</g>
</g>
</svg>
