<svg xmlns="http://www.w3.org/2000/svg" width="21.046" height="24.981" viewBox="0 0 21.046 24.981">
  <g id="function" transform="translate(-11.224)">
    <g id="그룹_2608" data-name="그룹 2608" transform="translate(11.224)">
      <path id="패스_4355" data-name="패스 4355" d="M15.281,24.981a3.826,3.826,0,0,0,3.444-2.9q.008-.026.014-.052c.743-3.075,1.925-7.95,2.8-11.5h3.135a1.067,1.067,0,0,0,0-2.135h-2.6c.28-1.117.486-1.913.567-2.184l.09-.3c.331-1.129,1.106-3.775,2.3-3.775,1.111,0,1.277,1.711,1.285,1.794a1.067,1.067,0,0,0,2.128-.168C28.344,2.46,27.5,0,25.031,0c-2.8,0-3.848,3.586-4.353,5.31l-.086.291c-.1.341-.372,1.392-.723,2.8H16.135a1.067,1.067,0,1,0,0,2.135h3.206c-1.1,4.446-2.513,10.309-2.668,10.955-.058.169-.5,1.357-1.391,1.357-1.367,0-1.959-1.919-1.964-1.933a1.068,1.068,0,1,0-2.051.594C11.64,22.8,12.905,24.981,15.281,24.981Z" transform="translate(-11.224)" fill="#e400b7"/>
      <path id="패스_4356" data-name="패스 4356" d="M91.682,83.841a1.12,1.12,0,0,0,1.158-1.158,1.449,1.449,0,0,0-.413-.96l-2.217-2.548,2.151-2.515a1.338,1.338,0,0,0,.347-.86,1.112,1.112,0,0,0-1.175-1.092,1.45,1.45,0,0,0-1.092.646L88.77,77.538l-1.638-2.183a1.437,1.437,0,0,0-1.174-.645A1.121,1.121,0,0,0,84.8,75.867a1.45,1.45,0,0,0,.413.959l2.068,2.382-2.267,2.68a1.257,1.257,0,0,0-.347.86,1.111,1.111,0,0,0,1.174,1.092,1.449,1.449,0,0,0,1.092-.645l1.786-2.349L90.506,83.2A1.438,1.438,0,0,0,91.682,83.841Z" transform="translate(-71.793 -61.614)" fill="#e400b7"/>
    </g>
  </g>
</svg>
