<svg xmlns="http://www.w3.org/2000/svg" width="31.715" height="31.655" viewBox="0 0 31.715 31.655">
  <g id="movement" transform="translate(0 -0.28)">
    <path id="패스_4350" data-name="패스 4350" d="M22.446,7.689v4.145l9.437-5.694L22.446.28V4.265h-12.3A10.011,10.011,0,0,0,.188,14.278v5.4H3.612v-5.4a6.583,6.583,0,0,1,6.536-6.588h12.3" transform="translate(-0.168)" fill="#49b885"/>
    <path id="패스_4351" data-name="패스 4351" d="M28.271,119.955A6.549,6.549,0,0,1,26.4,124.6a6.339,6.339,0,0,1-4.562,1.911H9.437V122.4L0,128.091l9.437,5.861v-4.021h12.4a9.739,9.739,0,0,0,7-2.932,9.954,9.954,0,0,0,2.853-7.045v-5.433H28.271v5.433Z" transform="translate(0 -102.017)" fill="#49b885"/>
  </g>
</svg>
