<?xml version="1.0" encoding="utf-8"?>
<!-- Generator: Adobe Illustrator 16.0.0, SVG Export Plug-In . SVG Version: 6.00 Build 0)  -->
<!DOCTYPE svg PUBLIC "-//W3C//DTD SVG 1.1//EN" "http://www.w3.org/Graphics/SVG/1.1/DTD/svg11.dtd">
<svg version="1.1" id="레이어_1" xmlns="http://www.w3.org/2000/svg" xmlns:xlink="http://www.w3.org/1999/xlink" x="0px"
	 y="0px" width="34.984px" height="26.238px" viewBox="0 0 34.984 26.238" enable-background="new 0 0 34.984 26.238"
	 xml:space="preserve">
<g id="folder" transform="translate(0 -64)">
	<g id="그룹_2607" transform="translate(0 64)">
		<g id="그룹_2606">
			<path id="패스_4353" fill="#FFFFFF" d="M32.068,7.288H7.288C5.947,7.284,4.777,8.2,4.461,9.504V9.52L0.189,23.926
				c-0.047,0.158-0.038,0.326,0.022,0.479c0.438,1.107,1.51,1.834,2.7,1.833h24.78c1.302,0.002,2.446-0.862,2.8-2.115
				c0.006-0.016,0.012-0.031,0.017-0.048l4.33-12.971c0.015-0.042,0.024-0.084,0.03-0.127c0.074-0.252,0.112-0.513,0.114-0.774
				C34.981,8.594,33.677,7.29,32.068,7.288z"/>
			<path id="패스_4354" fill="#FFFFFF" d="M0.624,15.127c0.035,0.006,0.07,0.009,0.105,0.008c0.323,0.001,0.608-0.212,0.7-0.521
				l1.624-5.485l0.006-0.024C3.557,7.176,5.298,5.829,7.289,5.83h22.46c0.403,0,0.729-0.326,0.729-0.729
				c0-0.083-0.015-0.166-0.042-0.244c-0.412-1.161-1.509-1.938-2.74-1.942H14.149l-2.7-2.7C11.312,0.077,11.126,0,10.932,0H2.915
				C1.305,0.002,0.002,1.305,0,2.915v11.491C0,14.768,0.265,15.075,0.624,15.127z"/>
		</g>
	</g>
</g>
</svg>
