<svg xmlns="http://www.w3.org/2000/svg" width="34.984" height="26.238" viewBox="0 0 34.984 26.238">
  <g id="folder" transform="translate(0 -64)">
    <g id="그룹_2607" data-name="그룹 2607" transform="translate(0 64)">
      <g id="그룹_2606" data-name="그룹 2606">
        <path id="패스_4353" data-name="패스 4353" d="M34.244,170.667H9.464a2.9,2.9,0,0,0-2.827,2.216l0,.016L2.365,187.305a.73.73,0,0,0,.023.478,2.9,2.9,0,0,0,2.7,1.833h24.78a2.905,2.905,0,0,0,2.8-2.115c.006-.016.012-.031.017-.048l4.33-12.971a.715.715,0,0,0,.03-.127,2.83,2.83,0,0,0,.114-.774A2.918,2.918,0,0,0,34.244,170.667Z" transform="translate(-2.176 -163.379)" fill="#b96ff2"/>
        <path id="패스_4354" data-name="패스 4354" d="M.624,79.127a.663.663,0,0,0,.105.008.729.729,0,0,0,.7-.522l1.624-5.485.006-.025a4.367,4.367,0,0,1,4.23-3.273h22.46a.729.729,0,0,0,.687-.973,2.917,2.917,0,0,0-2.74-1.942H14.149l-2.7-2.7A.728.728,0,0,0,10.932,64H2.915A2.918,2.918,0,0,0,0,66.915V78.406A.729.729,0,0,0,.624,79.127Z" transform="translate(0 -64)" fill="#b96ff2"/>
      </g>
    </g>
  </g>
</svg>
